<svg xmlns="http://www.w3.org/2000/svg" version="1.1" viewBox="-5.0 -10.0 110.0 135.0">
 <path d="m76.164 68.375c3.3008 0.89062 6.6211-1.2305 7.4219-4.4883 0.77734 1.1172 1.9375 1.9805 3.3477 2.3594 3.1602 0.85156 6.5156-1.0938 7.3594-4.2461l5.5039-20.645c0.84766-3.1875-1.0508-6.4805-4.2344-7.3398-1.3867-0.375-2.8281-0.24219-4.1133 0.36328 0.97656-3.2266-0.86328-6.7383-4.1562-7.625-3.1641-0.85156-6.5156 1.0898-7.3594 4.2461l-2.918 10.953c-2.4883-0.86719-5.0898-1.6211-7.7656-2.25-1.3867-3.4531-5.8438-4.8164-8.6289-2.0938-0.25-3.5352-1.7695-9.6484-6.7148-8.4531-1.7109 0.41406-2.9648 1.8398-3.6016 3.4258-0.31641-0.72266-0.73828-1.3984-1.3008-1.9844-1.8672-1.9414-4.5078-2.082-6.4258-0.34375-1.3359 1.2109-1.9102 2.8984-2.1523 4.5391-0.21094-0.32422-0.45312-0.63672-0.72656-0.92188-1.8672-1.9414-4.5078-2.082-6.4258-0.34375-1.7852 1.6211-2.2109 4.0859-2.2969 6.1562-2.7383 0.64453-5.4141 1.4297-7.9844 2.332l-2.9336-11.012c-0.83984-3.1562-4.1953-5.1016-7.3594-4.2461-3.2891 0.88672-5.1328 4.4062-4.1562 7.625-1.2852-0.60547-2.7266-0.73828-4.1133-0.36328-3.1836 0.85938-5.082 4.1523-4.2344 7.3398l5.5039 20.645c0.84375 3.1602 4.1914 5.1016 7.3594 4.2461 1.4141-0.38281 2.5703-1.2422 3.3477-2.3594 0.76953 3.2656 4.1367 5.375 7.4219 4.4883 3.1836-0.85938 5.082-4.1523 4.2344-7.3398l-2.0039-7.5273c1.2109-0.44531 2.4688-0.86328 3.7539-1.25 0.52344 5.3633 2.0547 11.867 5.9414 15.828l-0.19531 22.074c-0.003906 0.58984 0.46875 1.0742 1.0586 1.0781h0.007812c0.58594 0 1.0625-0.47266 1.0664-1.0586l0.19922-22.527c0.003906-0.28906-0.125-0.58984-0.33594-0.78906-3.8555-3.6328-4.9883-10.711-5.5312-14.109-0.32813-2.0469-0.17969-4.9414 0.73828-6.2812 1.1602-1.6953 3.5977-2.168 5.832-2.4062 2.7852-0.29687 9.6094-0.125 8.6328 4.543-0.48437 2.3086-4.4258 3.5-6.3516 3.5234-0.50781 0.007812-0.94141 0.37109-1.0352 0.87109s0.17969 0.99609 0.65234 1.1875c5.1445 2.0703 8.4727 6.5703 8.2969 12.199-0.019531 0.58984 0.44531 1.082 1.0352 1.1016 0.58984 0.019531 1.082-0.44531 1.1016-1.0352 0.15625-5.1016-2.2812-10.109-6.6953-12.805 0.95312-0.34766 1.8477-0.8125 2.6875-1.3867 1.5352-0.41797 2.8906-1.6055 3.7109-3.1719 0.95312 2.0234 2.8125 3.6992 5.1953 3.2695 1.2773-0.23047 2.4727-1.0195 3.3633-2.1406 0.76953 2.8203 3.2305 5.0039 6.2695 4.3672 0.9375-0.19922 1.8203-0.63672 2.5547-1.2383 0.007812 0.85547-0.011719 1.8203-0.09375 2.9922-0.37109 5.3359-2.1211 8.9102-6.2461 12.758-0.21484 0.20312-0.33984 0.48438-0.33984 0.78125v20.289c0 0.58984 0.47656 1.0703 1.0703 1.0703 0.58984 0 1.0703-0.47656 1.0703-1.0703v-19.828c4.2695-4.0938 6.1836-8.1367 6.5781-13.852 0.125-1.7969 0.11328-3.1211 0.070313-4.3047 1.3086 0.38672 2.5898 0.80859 3.8281 1.2617l-2.0195 7.5859c-0.84766 3.1836 1.0508 6.4766 4.2344 7.3359zm-52.887-2.0664c-2.0469 0.54688-4.1953-0.69922-4.7383-2.7344l-8.0039-30.031c-0.54688-2.0508 0.67578-4.1719 2.7266-4.7266 2.043-0.55078 4.1953 0.70312 4.7383 2.7344l8.0039 30.031c0.54688 2.0547-0.67578 4.1758-2.7266 4.7266zm15.094-24.367c-1.793 0.19141-3.707 0.53125-5.2773 1.4336 0.011719-0.59766 0.023438-1.1992 0.011719-1.7812-0.039063-2.5039 0.054687-5.0703 1.6094-6.4805 1.0742-0.97656 2.3633-0.88672 3.4492 0.24219 1.457 1.5156 1.625 4.1289 1.7695 6.4336v0.019532c-0.53125 0.027344-1.0547 0.078125-1.5625 0.13281zm10.863 4.7539c-0.53125-1.875-2.0977-3.4258-3.75-4.1484-1.0117-0.44141-2.0664-0.65234-3.1172-0.73828 0.019531-1.1641 0.066406-2.3281 0.046874-3.4883-0.039062-2.5039 0.054688-5.0703 1.6094-6.4805 1.0742-0.97656 2.3633-0.88672 3.4492 0.24219 1.457 1.5156 1.625 4.1289 1.7695 6.4336 0.17578 2.6875 0.57031 5.5078-0.007813 8.1797zm9.2461 0.25781c-0.41016 1.6719-1.6836 3.0586-3.0312 3.3047-4.1133 0.74219-3.8125-7.293-3.7578-9.5156 0.019532-0.80859 0.03125-1.6172 0.027344-2.4258-0.027344-1.8203-0.089844-3.793 0.80859-5.4492 0.92578-1.7031 2.8125-2.2852 4.2461-0.79297 1.9219 2 1.6875 5.3945 1.875 7.9688 0.17187 2.3555 0.35156 4.7852-0.16797 6.9102zm9.3242 3.1484c-0.36328 1.1406-1.5039 2.1289-2.7812 2.3945-3.9414 0.83203-4.1094-4.5352-4.0273-7.0586 0.066406-2.125-0.48828-5.2188 1.5312-6.6367 1.3633-0.95703 3.1914-0.53906 4.1914 0.72656 0.92578 1.168 1.0156 2.7812 1.1328 4.2031 0.17578 2.0742 0.59375 4.3398-0.046874 6.3711zm6.1914 11.484 8.0039-30.031c0.54297-2.0352 2.6914-3.2812 4.7383-2.7344 2.0508 0.55469 3.2734 2.6719 2.7266 4.7266l-8.0039 30.031c-0.54297 2.0312-2.6953 3.2852-4.7383 2.7344-2.0508-0.55469-3.2734-2.6758-2.7266-4.7266z"/>
 <path d="m99.422 76.32c-0.49609-0.32031-1.1562-0.17578-1.4766 0.32031-2.2969 3.5664-5.0234 5.9219-8.3359 7.2031-5.6289 2.1758-11.809 1.5547-16.129-1.6211-0.47656-0.34766-1.1445-0.24609-1.4922 0.22656-0.34766 0.47656-0.24609 1.1445 0.22656 1.4922 2.9805 2.1914 6.7188 3.3164 10.609 3.3164 7.0859 0 13.125-3.5742 16.914-9.4648 0.32422-0.49219 0.17969-1.1523-0.31641-1.4727z"/>
 <path d="m94.137 68.695c-1.6758 3.1914-3.4609 6.1641-6.832 7.4688-2.832 1.0938-6.9531 1.457-10.035-0.80859-0.47656-0.34766-1.1445-0.24609-1.4922 0.22656-0.34766 0.47656-0.24609 1.1445 0.22656 1.4922 2.0508 1.5078 4.4414 2.0781 6.7383 2.0781 6.5234 0 10.445-4.0586 13.285-9.4648 0.27344-0.52344 0.074218-1.168-0.44922-1.4414-0.52344-0.27344-1.168-0.070313-1.4414 0.44922z"/>
 <path d="m72.117 17.148c0.3125 0 0.625-0.13672 0.83594-0.40234 3.3516-4.1875 9.1602-6.3867 15.16-5.7422 3.5312 0.37891 6.7734 1.9492 9.9141 4.8008 1.0352 0.94141 2.4258-0.68359 1.4375-1.582-3.4883-3.1641-7.125-4.9141-11.121-5.3438-6.7188-0.72266-13.254 1.7812-17.059 6.5312-0.54297 0.68359-0.0625 1.7383 0.83203 1.7383z"/>
 <path d="m87.656 17.383c-3.582-0.38281-8.4492 0.50781-11.379 4.168-0.36719 0.46094-0.29297 1.1328 0.16797 1.5 0.46094 0.36719 1.1328 0.29297 1.5-0.16797 2.3906-2.9844 6.4648-3.7031 9.4844-3.3789 3.5938 0.38672 6.0859 2.7969 8.5312 5.4453 0.21094 0.22656 0.49609 0.34375 0.78516 0.34375 0.9375 0 1.3945-1.1328 0.78516-1.793-2.625-2.8398-5.5469-5.6523-9.875-6.1172z"/>
 <path d="m5.5039 13.801c4.3203-3.1758 10.5-3.7969 16.129-1.6211 3.3125 1.2812 6.0391 3.6367 8.3359 7.2031 0.20312 0.31641 0.54688 0.48828 0.89844 0.48828 0.83203 0 1.3359-0.96484 0.89844-1.6484-2.5508-3.9609-5.6133-6.5898-9.3633-8.0391-6.3047-2.4375-13.262-1.7109-18.164 1.8945-0.47656 0.34766-0.57812 1.0195-0.22656 1.4922 0.34766 0.47656 1.0156 0.57813 1.4922 0.23047z"/>
 <path d="m20.098 18.293c-3.3594-1.2969-8.293-1.6953-12.07 1.082-0.47656 0.34766-0.57812 1.0195-0.22656 1.4922 0.34766 0.47656 1.0195 0.57812 1.4922 0.22656 3.082-2.2656 7.2031-1.9023 10.035-0.80859 3.3711 1.3047 5.1562 4.2773 6.832 7.4688 0.19141 0.36328 0.5625 0.57031 0.94531 0.57031 0.78125 0 1.3047-0.87891 0.94531-1.5664-1.7969-3.4219-3.8945-6.8945-7.9531-8.4648z"/>
 <path d="m28.426 82.188c-2.3477 1.6016-4.8477 2.5508-7.4375 2.832-6 0.64453-11.809-1.5547-15.16-5.7422-0.36719-0.46094-1.0391-0.53516-1.5-0.16797s-0.53516 1.043-0.16797 1.5c3.3711 4.2109 8.8867 6.6523 14.773 6.6523 3.8516 0 7.5156-1.1406 10.695-3.3125 0.48828-0.33203 0.61328-0.99609 0.28125-1.4844-0.33203-0.48438-0.99609-0.61328-1.4844-0.27734z"/>
 <path d="m18.973 78.297c3.5391 0 6.5586-1.5117 9.1289-3.8672 0.43359-0.39844 0.46484-1.0742 0.066407-1.5078-0.39844-0.43359-1.0742-0.46484-1.5078-0.066406-2.1797 2-4.1367 2.9961-6.3516 3.2344-3.0156 0.32422-7.0938-0.39453-9.4844-3.3789-0.36719-0.46094-1.043-0.53516-1.5-0.16797-0.46094 0.36719-0.53516 1.043-0.16797 1.5 2.5234 3.1523 6.4805 4.2539 9.8164 4.2539z"/>
< y="117.5" font-size="5.0" font-weight="bold" font-family="Arbeit Regular, Helvetica, Arial-Unicode, Arial, Sans-serif" fill="#ffc300">Created by Shocho</text><text x="0.0" y="122.5" font-size="5.0" font-weight="bold" font-family="Arbeit Regular, Helvetica, Arial-Unicode, Arial, Sans-serif" fill="#000000">from Noun Project</text></svg>