<svg width="83" height="95" viewBox="0 0 83 95" fill="none" xmlns="http://www.w3.org/2000/svg">
<g clip-path="url(#clip0_1_7)">
<path d="M81.3562 71.287C82.7703 59.889 77.0984 41.357 73.7585 37.33C70.6999 33.6425 59.4855 15.892 58.7385 14.049C58.2737 12.9006 55.4963 7.04512 46.2615 4.37322C45.2185 4.07244 44.2732 3.84197 43.3748 3.64666C42.6678 3.27166 38.1482 0.853658 37.2107 0.306858C36.4764 -0.122832 35.4138 -0.0993915 34.3748 0.365452C33.6873 0.674042 33.1014 1.12717 32.656 1.67015C30.5974 3.95535 24.1755 11.3538 24.5466 14.3072C24.8709 16.8502 27.2497 17.7681 28.8513 17.9595C29.1756 18.2329 29.531 18.436 29.906 18.5884C30.0467 19.4712 30.9021 23.6939 34.5857 24.7056C34.9959 24.8188 36.4724 25.0142 37.4295 24.1782C38.1327 23.5649 38.2342 22.5259 38.2069 21.6391C39.7147 22.3657 41.4608 22.4555 41.91 22.4633H41.9647C42.8084 22.4633 43.5116 22.0102 44.0897 21.3774C44.8865 21.8423 45.7225 22.0923 46.5975 22.0923C46.9217 22.0923 47.2537 22.0532 47.5896 21.9907C48.6169 23.6157 52.6913 30.1626 54.367 34.5887C55.7186 38.159 55.5389 42.9364 55.367 47.5537C55.1951 52.1553 55.0232 56.8389 56.2732 60.6277C55.5193 60.6043 54.5232 60.5262 53.6013 60.4285C52.1091 57.0379 46.2536 53.4441 40.8783 53.9637C38.9213 54.1512 36.0775 54.6942 32.89 56.1395C31.933 53.6668 26.9447 46.8895 13.23 47.0145C3.3042 47.1083 0.308 49.3426 0 49.6122L1.3438 51.202C1.37114 51.1786 4.1602 49.0575 13.5158 49.1004C27.3988 49.1629 30.4538 55.4129 31.0238 57.0731C26.2738 59.3817 21.8949 64.7958 21.8949 64.7958C21.8949 64.7958 19.598 70.706 16.1449 71.6747C12.0004 72.8388 4.4419 78.745 4.1529 86.4757L6.2349 86.5538C6.47709 79.9327 13.1763 74.6558 16.6959 73.6828C17.149 73.5578 17.5826 73.3703 17.9967 73.1477C18.9772 73.468 21.4303 74.2102 24.3678 74.6086C23.4928 76.4172 21.4655 80.4602 19.649 82.882C18.6099 84.2648 17.8756 86.0422 17.1646 87.757C16.2037 90.0812 15.2115 92.4836 13.7154 92.9718L14.3638 94.9484C16.77 94.1632 17.9497 91.3117 19.0904 88.55C19.7506 86.9523 20.4342 85.3 21.317 84.1242C21.7311 83.5734 22.1491 82.9484 22.5631 82.2922C25.1061 83.9602 31.1139 87.1203 40.6141 87.5149C41.2938 87.5461 41.9618 87.5578 42.618 87.5578C53.622 87.5578 60.93 83.7766 61.848 83.2766C63.0511 83.4485 64.2425 83.5305 65.3832 83.5305C68.5551 83.5305 71.3402 82.9368 72.8949 82.1321C74.3793 81.3626 76.059 80.8977 77.5433 80.4876C79.4378 79.9642 81.0745 79.5111 81.973 78.5267C83.5042 76.8314 82.0277 72.847 81.3559 71.2884L81.3562 71.287ZM35.1882 2.28702C35.7195 2.03311 36.0906 2.06827 36.1648 2.10733C36.4968 2.30264 37.2429 2.70889 38.1023 3.17763C37.0281 3.29482 36.1492 3.58388 35.4695 4.06435C34.5007 4.74794 33.9461 5.81045 33.8679 7.13465C33.8015 8.26745 33.239 9.51745 32.6452 10.8416C31.8249 12.6736 30.9733 14.5643 31.1374 16.6502C31.1413 16.6893 31.1491 16.7245 31.153 16.7635C30.6843 16.7284 30.2702 16.5252 29.9264 16.1151C29.3483 15.4159 29.2077 14.4081 29.4655 13.9745C30.4303 12.3534 33.4147 5.98619 33.8405 3.84149C34.0006 3.08758 34.6413 2.54482 35.1882 2.28702ZM26.6179 14.045C26.5086 13.1895 27.9812 10.8106 30.0124 8.12702C29.1335 10.1114 28.1647 12.0958 27.6843 12.9043C27.2976 13.5567 27.1961 14.4004 27.3406 15.252C26.9734 14.9786 26.6883 14.5958 26.6179 14.045ZM35.1452 22.6934C33.278 22.1895 32.4694 20.2051 32.1452 19.0372C33.1647 20.1778 34.7585 20.6856 36.0319 20.8419C36.1765 21.6271 36.4304 23.041 35.1452 22.6934ZM80.4302 77.1154C79.938 77.6545 78.5044 78.0529 76.9888 78.4709C75.4068 78.9084 73.6138 79.4045 71.938 80.2756C69.0786 81.76 59.458 82.6662 53.778 77.6818C53.778 77.6818 56.2702 81.838 58.4616 82.5138C55.1804 83.8185 48.8405 85.7638 40.7076 85.4279C31.6451 85.0529 25.9106 81.9748 23.6486 80.4904C24.0939 79.7092 24.5197 78.924 24.9025 78.1935C37.1295 83.8849 43.9805 80.6857 43.9805 80.6857C35.9571 81.7209 28.2535 77.7287 25.8475 76.3302C26.1835 75.6466 26.4374 75.1154 26.578 74.8146C30.0546 74.6701 32.1171 72.2834 32.1171 72.2834C27.9999 73.4318 22.7655 72.3225 20.0581 71.5803C22.1558 69.4787 23.4136 66.5959 23.7143 65.8615C29.8237 58.5256 36.5263 56.4904 41.0813 56.0334C46.4485 55.4982 50.5149 59.3381 52.1753 61.6779C53.0581 62.9201 53.9956 65.1271 54.5503 67.6623C54.5503 67.6623 55.6675 64.5881 54.6206 62.6154C55.2886 62.6701 56.9644 62.7013 57.1597 62.6896C58.9097 66.0998 65.0542 66.0451 65.0542 66.0451C56.8394 63.9709 57.1362 56.0331 57.4526 47.6311C57.6323 42.803 57.8198 37.8147 56.3198 33.8501C54.6557 29.4517 50.8979 23.3271 49.5776 21.2251C49.8628 21.065 50.1401 20.8892 50.4057 20.6978C52.019 21.9673 56.5034 25.9009 58.5463 31.8228C58.5463 31.8228 57.2104 23.5455 52.0151 19.3148C53.5268 17.7953 52.7847 15.0062 52.7847 15.0062C52.0698 16.1976 49.6909 19.4085 47.273 19.932C46.5542 20.0882 45.8902 19.9789 45.2418 19.6273C45.5738 18.9476 45.8043 18.307 45.941 17.8851C48.066 17.6234 48.9605 15.6546 48.9605 15.6546C46.2105 16.3382 45.2339 15.9944 44.1011 15.4983C45.1519 14.2249 43.6675 11.7483 43.6675 11.7483C43.6402 14.1897 43.3042 14.3577 42.5347 14.9866C41.3941 14.514 39.9956 15.1741 39.9956 15.1741C40.1792 15.3616 41.0894 15.2288 41.3237 16.5843C41.4409 17.2679 41.101 17.9827 40.8393 18.2249C40.8393 18.2249 42.1557 18.2718 42.6518 17.3382C42.9721 17.4046 43.3823 17.4867 43.8432 17.5726C43.3432 18.9632 42.4994 20.3812 41.9682 20.3812H41.9604C40.6088 20.3499 38.8588 19.932 38.2104 19.0921C38.0385 18.8694 37.8315 18.4866 38.0034 17.7601C38.7651 14.5726 38.519 8.65459 38.5073 8.40459C38.5073 8.40459 36.6714 14.3734 35.9761 17.2718C35.855 17.7757 35.8433 18.2562 35.898 18.7171C34.8472 18.5335 33.3277 18.0061 33.2105 16.4827C33.0855 14.928 33.8276 13.2835 34.5425 11.6897C35.187 10.2522 35.855 8.76389 35.9448 7.25219C35.9994 6.33422 36.3823 5.96309 36.6674 5.75999C37.5815 5.11155 39.8901 4.69359 45.6752 6.36937C53.9838 8.77557 56.3982 13.8382 56.8002 14.8264C57.7104 17.0803 69.1592 35.0564 72.1482 38.6544C74.867 41.9317 80.7888 60.0094 79.2498 71.2954L79.2108 71.5883L79.3318 71.8618C80.3318 74.0884 80.8637 76.6388 80.4302 77.1154Z" fill="#FFDF20"/>
<path d="M29.6842 67.948C29.6842 67.948 36.3131 74.1316 43.1612 74.366C52.8292 74.6941 52.8292 69.0105 52.8292 69.0105C47.2042 78.0378 29.8412 68.0418 29.6842 67.948Z" fill="#FFDF20"/>
</g>
<defs>
<clipPath id="clip0_1_7">
<rect width="82.644" height="94.9484" fill="white"/>
</clipPath>
</defs>
</svg>
