<svg width="208" height="168" viewBox="0 0 208 168" fill="none" xmlns="http://www.w3.org/2000/svg">
<g filter="url(#filter0_d_1_3)">
<mask id="path-1-inside-1_1_3" fill="white">
<path d="M156.333 103.436C162.934 105.638 169.574 100.392 171.176 92.3351C172.73 95.0982 175.051 97.2333 177.871 98.1704C184.191 100.277 190.901 95.4652 192.589 87.6689L203.596 36.6092C205.291 28.7258 201.495 20.5815 195.128 18.4563C192.355 17.5288 189.472 17.8573 186.902 19.3547C188.855 11.3746 185.175 2.68942 178.59 0.496418C172.262 -1.60968 165.559 3.19173 163.872 10.998L158.036 38.0872C153.06 35.9424 147.857 34.0778 142.506 32.5224C139.732 23.9821 132.241 19.164 126.671 25.8976C126.171 17.1543 123.132 2.03497 113.242 4.99121C109.82 6.01527 105.891 10.9878 104.617 14.9103C103.984 13.1231 103.141 11.4518 102.016 10.0025C98.2816 5.20098 93.0007 4.85324 89.1649 9.15232C86.4932 12.1471 85.3447 16.3207 84.8605 20.3785C84.4387 19.5767 83.9543 18.8038 83.4075 18.0985C79.6733 13.297 74.3924 12.9493 70.5566 17.2483C66.9864 21.2577 66.135 27.3537 65.963 32.474C60.4867 34.0681 55.1354 36.01 49.9951 38.2415L44.1283 11.0064C42.4487 3.20044 35.7381 -1.61097 29.4103 0.504876C22.8324 2.69793 19.1453 11.4024 21.0983 19.3632C18.5281 17.8657 15.6455 17.5373 12.8722 18.4647C6.50536 20.5902 2.70877 28.7343 4.40388 36.6177L15.4111 87.6773C17.0985 95.4932 23.7934 100.295 30.129 98.1789C32.9571 97.2321 35.2694 95.1067 36.8241 92.3436C38.363 100.42 45.097 105.637 51.667 103.444C58.0339 101.319 61.8305 93.1746 60.1354 85.2912L56.1278 66.6745C58.5495 65.5731 61.0651 64.5394 63.6352 63.583C64.682 76.8476 67.7443 92.9327 75.5173 102.729L75.1267 157.323C75.1189 158.782 76.0642 159.98 77.2438 159.989H77.2594C78.4312 159.989 79.3843 158.82 79.3921 157.371L79.7905 101.657C79.7983 100.942 79.5405 100.198 79.1187 99.7055C71.4081 90.7207 69.1426 73.2148 68.0569 64.8108C67.4007 59.7483 67.6975 52.5896 69.5334 49.276C71.8536 45.0831 76.7284 43.914 81.1967 43.3249C86.7668 42.5907 100.414 43.0158 98.4613 54.5608C97.4927 60.2704 89.6103 63.217 85.7589 63.2749C84.7433 63.2942 83.8761 64.1927 83.6886 65.4293C83.501 66.6659 84.0479 67.8929 84.9932 68.3663C95.2816 73.4866 101.938 84.6161 101.586 98.5371C101.547 99.9959 102.477 101.213 103.656 101.262C104.836 101.31 105.82 100.16 105.859 98.7013C106.172 86.0839 101.297 73.6995 92.4696 67.0317C94.3757 66.1719 96.1648 65.0222 97.8443 63.6021C100.914 62.5684 103.625 59.6313 105.266 55.7573C107.172 60.7616 110.89 64.9062 115.656 63.8435C118.21 63.2735 120.601 61.322 122.382 58.5493C123.921 65.5245 128.843 70.9251 134.92 69.3504C136.795 68.8576 138.561 67.7756 140.029 66.2878C140.045 68.4035 140.006 70.7898 139.842 73.6881C139.1 86.885 135.6 95.725 127.35 105.241C126.921 105.744 126.671 106.439 126.671 107.174V157.353C126.671 158.812 127.624 160 128.811 160C129.991 160 130.952 158.821 130.952 157.353V108.314C139.49 98.189 143.318 88.19 144.107 74.0548C144.357 69.6107 144.334 66.3356 144.248 63.4083C146.865 64.3648 149.427 65.4081 151.903 66.5288L147.865 85.2904C146.17 93.1641 149.966 101.31 156.333 103.436ZM50.5648 98.325C46.4712 99.6776 42.1747 96.5957 41.0888 91.5622L25.0818 17.2889C23.9881 12.2168 26.4333 6.97087 30.5347 5.59897C34.6205 4.23677 38.9249 7.33794 40.0108 12.3617L56.0177 86.6351C57.1114 91.7168 54.6662 96.9628 50.5648 98.325ZM80.7511 38.06C77.1653 38.5334 73.3376 39.3739 70.1971 41.6056C70.2206 40.1275 70.244 38.6397 70.2206 37.2003C70.1424 31.0076 70.3299 24.6603 73.4392 21.1726C75.5875 18.7573 78.1655 18.9795 80.3372 21.7716C83.251 25.52 83.587 31.9833 83.876 37.6833V37.7316C82.8136 37.7993 81.7667 37.9248 80.7511 38.06ZM102.476 49.8175C101.413 45.1802 98.2808 41.3447 94.9763 39.5575C92.9531 38.4658 90.8438 37.9442 88.7423 37.7316C88.7813 34.8525 88.8751 31.9737 88.836 29.1043C88.7579 22.9116 88.9454 16.5643 92.0547 13.0766C94.2029 10.6613 96.781 10.8835 98.9527 13.6756C101.867 17.424 102.202 23.8872 102.491 29.5873C102.843 36.234 103.632 43.2093 102.476 49.8175ZM120.967 50.4551C120.147 54.5901 117.6 58.0197 114.905 58.6283C106.679 60.4639 107.28 40.5911 107.39 35.0941C107.429 33.0943 107.452 31.0944 107.445 29.0946C107.39 24.5926 107.265 19.7137 109.062 15.6175C110.913 11.4054 114.686 9.96572 117.553 13.6563C121.397 18.6028 120.928 26.9981 121.303 33.3649C121.647 39.1906 122.006 45.1995 120.967 50.4551ZM139.614 58.2418C138.888 61.0627 136.607 63.507 134.052 64.1639C126.17 66.2217 125.834 52.9473 125.998 46.7064C126.131 41.4508 125.022 33.7992 129.06 30.2924C131.787 27.9254 135.443 28.9592 137.443 32.0893C139.294 34.9781 139.474 38.9679 139.708 42.4845C140.06 47.6145 140.896 53.2179 139.614 58.2418ZM151.997 86.6443L168.003 12.3709C169.089 7.33742 173.386 4.25579 177.48 5.60815C181.581 6.98002 184.026 12.2163 182.932 17.2981L166.926 91.5714C165.84 96.595 161.535 99.6964 157.449 98.3342C153.348 96.9623 150.903 91.7163 151.997 86.6443Z"/>
</mask>
<path d="M156.333 103.436C162.934 105.638 169.574 100.392 171.176 92.3351C172.73 95.0982 175.051 97.2333 177.871 98.1704C184.191 100.277 190.901 95.4652 192.589 87.6689L203.596 36.6092C205.291 28.7258 201.495 20.5815 195.128 18.4563C192.355 17.5288 189.472 17.8573 186.902 19.3547C188.855 11.3746 185.175 2.68942 178.59 0.496418C172.262 -1.60968 165.559 3.19173 163.872 10.998L158.036 38.0872C153.06 35.9424 147.857 34.0778 142.506 32.5224C139.732 23.9821 132.241 19.164 126.671 25.8976C126.171 17.1543 123.132 2.03497 113.242 4.99121C109.82 6.01527 105.891 10.9878 104.617 14.9103C103.984 13.1231 103.141 11.4518 102.016 10.0025C98.2816 5.20098 93.0007 4.85324 89.1649 9.15232C86.4932 12.1471 85.3447 16.3207 84.8605 20.3785C84.4387 19.5767 83.9543 18.8038 83.4075 18.0985C79.6733 13.297 74.3924 12.9493 70.5566 17.2483C66.9864 21.2577 66.135 27.3537 65.963 32.474C60.4867 34.0681 55.1354 36.01 49.9951 38.2415L44.1283 11.0064C42.4487 3.20044 35.7381 -1.61097 29.4103 0.504876C22.8324 2.69793 19.1453 11.4024 21.0983 19.3632C18.5281 17.8657 15.6455 17.5373 12.8722 18.4647C6.50536 20.5902 2.70877 28.7343 4.40388 36.6177L15.4111 87.6773C17.0985 95.4932 23.7934 100.295 30.129 98.1789C32.9571 97.2321 35.2694 95.1067 36.8241 92.3436C38.363 100.42 45.097 105.637 51.667 103.444C58.0339 101.319 61.8305 93.1746 60.1354 85.2912L56.1278 66.6745C58.5495 65.5731 61.0651 64.5394 63.6352 63.583C64.682 76.8476 67.7443 92.9327 75.5173 102.729L75.1267 157.323C75.1189 158.782 76.0642 159.98 77.2438 159.989H77.2594C78.4312 159.989 79.3843 158.82 79.3921 157.371L79.7905 101.657C79.7983 100.942 79.5405 100.198 79.1187 99.7055C71.4081 90.7207 69.1426 73.2148 68.0569 64.8108C67.4007 59.7483 67.6975 52.5896 69.5334 49.276C71.8536 45.0831 76.7284 43.914 81.1967 43.3249C86.7668 42.5907 100.414 43.0158 98.4613 54.5608C97.4927 60.2704 89.6103 63.217 85.7589 63.2749C84.7433 63.2942 83.8761 64.1927 83.6886 65.4293C83.501 66.6659 84.0479 67.8929 84.9932 68.3663C95.2816 73.4866 101.938 84.6161 101.586 98.5371C101.547 99.9959 102.477 101.213 103.656 101.262C104.836 101.31 105.82 100.16 105.859 98.7013C106.172 86.0839 101.297 73.6995 92.4696 67.0317C94.3757 66.1719 96.1648 65.0222 97.8443 63.6021C100.914 62.5684 103.625 59.6313 105.266 55.7573C107.172 60.7616 110.89 64.9062 115.656 63.8435C118.21 63.2735 120.601 61.322 122.382 58.5493C123.921 65.5245 128.843 70.9251 134.92 69.3504C136.795 68.8576 138.561 67.7756 140.029 66.2878C140.045 68.4035 140.006 70.7898 139.842 73.6881C139.1 86.885 135.6 95.725 127.35 105.241C126.921 105.744 126.671 106.439 126.671 107.174V157.353C126.671 158.812 127.624 160 128.811 160C129.991 160 130.952 158.821 130.952 157.353V108.314C139.49 98.189 143.318 88.19 144.107 74.0548C144.357 69.6107 144.334 66.3356 144.248 63.4083C146.865 64.3648 149.427 65.4081 151.903 66.5288L147.865 85.2904C146.17 93.1641 149.966 101.31 156.333 103.436ZM50.5648 98.325C46.4712 99.6776 42.1747 96.5957 41.0888 91.5622L25.0818 17.2889C23.9881 12.2168 26.4333 6.97087 30.5347 5.59897C34.6205 4.23677 38.9249 7.33794 40.0108 12.3617L56.0177 86.6351C57.1114 91.7168 54.6662 96.9628 50.5648 98.325ZM80.7511 38.06C77.1653 38.5334 73.3376 39.3739 70.1971 41.6056C70.2206 40.1275 70.244 38.6397 70.2206 37.2003C70.1424 31.0076 70.3299 24.6603 73.4392 21.1726C75.5875 18.7573 78.1655 18.9795 80.3372 21.7716C83.251 25.52 83.587 31.9833 83.876 37.6833V37.7316C82.8136 37.7993 81.7667 37.9248 80.7511 38.06ZM102.476 49.8175C101.413 45.1802 98.2808 41.3447 94.9763 39.5575C92.9531 38.4658 90.8438 37.9442 88.7423 37.7316C88.7813 34.8525 88.8751 31.9737 88.836 29.1043C88.7579 22.9116 88.9454 16.5643 92.0547 13.0766C94.2029 10.6613 96.781 10.8835 98.9527 13.6756C101.867 17.424 102.202 23.8872 102.491 29.5873C102.843 36.234 103.632 43.2093 102.476 49.8175ZM120.967 50.4551C120.147 54.5901 117.6 58.0197 114.905 58.6283C106.679 60.4639 107.28 40.5911 107.39 35.0941C107.429 33.0943 107.452 31.0944 107.445 29.0946C107.39 24.5926 107.265 19.7137 109.062 15.6175C110.913 11.4054 114.686 9.96572 117.553 13.6563C121.397 18.6028 120.928 26.9981 121.303 33.3649C121.647 39.1906 122.006 45.1995 120.967 50.4551ZM139.614 58.2418C138.888 61.0627 136.607 63.507 134.052 64.1639C126.17 66.2217 125.834 52.9473 125.998 46.7064C126.131 41.4508 125.022 33.7992 129.06 30.2924C131.787 27.9254 135.443 28.9592 137.443 32.0893C139.294 34.9781 139.474 38.9679 139.708 42.4845C140.06 47.6145 140.896 53.2179 139.614 58.2418ZM151.997 86.6443L168.003 12.3709C169.089 7.33742 173.386 4.25579 177.48 5.60815C181.581 6.98002 184.026 12.2163 182.932 17.2981L166.926 91.5714C165.84 96.595 161.535 99.6964 157.449 98.3342C153.348 96.9623 150.903 91.7163 151.997 86.6443Z" fill="#FFDF20"/>
<path d="M156.333 103.436C162.934 105.638 169.574 100.392 171.176 92.3351C172.73 95.0982 175.051 97.2333 177.871 98.1704C184.191 100.277 190.901 95.4652 192.589 87.6689L203.596 36.6092C205.291 28.7258 201.495 20.5815 195.128 18.4563C192.355 17.5288 189.472 17.8573 186.902 19.3547C188.855 11.3746 185.175 2.68942 178.59 0.496418C172.262 -1.60968 165.559 3.19173 163.872 10.998L158.036 38.0872C153.06 35.9424 147.857 34.0778 142.506 32.5224C139.732 23.9821 132.241 19.164 126.671 25.8976C126.171 17.1543 123.132 2.03497 113.242 4.99121C109.82 6.01527 105.891 10.9878 104.617 14.9103C103.984 13.1231 103.141 11.4518 102.016 10.0025C98.2816 5.20098 93.0007 4.85324 89.1649 9.15232C86.4932 12.1471 85.3447 16.3207 84.8605 20.3785C84.4387 19.5767 83.9543 18.8038 83.4075 18.0985C79.6733 13.297 74.3924 12.9493 70.5566 17.2483C66.9864 21.2577 66.135 27.3537 65.963 32.474C60.4867 34.0681 55.1354 36.01 49.9951 38.2415L44.1283 11.0064C42.4487 3.20044 35.7381 -1.61097 29.4103 0.504876C22.8324 2.69793 19.1453 11.4024 21.0983 19.3632C18.5281 17.8657 15.6455 17.5373 12.8722 18.4647C6.50536 20.5902 2.70877 28.7343 4.40388 36.6177L15.4111 87.6773C17.0985 95.4932 23.7934 100.295 30.129 98.1789C32.9571 97.2321 35.2694 95.1067 36.8241 92.3436C38.363 100.42 45.097 105.637 51.667 103.444C58.0339 101.319 61.8305 93.1746 60.1354 85.2912L56.1278 66.6745C58.5495 65.5731 61.0651 64.5394 63.6352 63.583C64.682 76.8476 67.7443 92.9327 75.5173 102.729L75.1267 157.323C75.1189 158.782 76.0642 159.98 77.2438 159.989H77.2594C78.4312 159.989 79.3843 158.82 79.3921 157.371L79.7905 101.657C79.7983 100.942 79.5405 100.198 79.1187 99.7055C71.4081 90.7207 69.1426 73.2148 68.0569 64.8108C67.4007 59.7483 67.6975 52.5896 69.5334 49.276C71.8536 45.0831 76.7284 43.914 81.1967 43.3249C86.7668 42.5907 100.414 43.0158 98.4613 54.5608C97.4927 60.2704 89.6103 63.217 85.7589 63.2749C84.7433 63.2942 83.8761 64.1927 83.6886 65.4293C83.501 66.6659 84.0479 67.8929 84.9932 68.3663C95.2816 73.4866 101.938 84.6161 101.586 98.5371C101.547 99.9959 102.477 101.213 103.656 101.262C104.836 101.31 105.82 100.16 105.859 98.7013C106.172 86.0839 101.297 73.6995 92.4696 67.0317C94.3757 66.1719 96.1648 65.0222 97.8443 63.6021C100.914 62.5684 103.625 59.6313 105.266 55.7573C107.172 60.7616 110.89 64.9062 115.656 63.8435C118.21 63.2735 120.601 61.322 122.382 58.5493C123.921 65.5245 128.843 70.9251 134.92 69.3504C136.795 68.8576 138.561 67.7756 140.029 66.2878C140.045 68.4035 140.006 70.7898 139.842 73.6881C139.1 86.885 135.6 95.725 127.35 105.241C126.921 105.744 126.671 106.439 126.671 107.174V157.353C126.671 158.812 127.624 160 128.811 160C129.991 160 130.952 158.821 130.952 157.353V108.314C139.49 98.189 143.318 88.19 144.107 74.0548C144.357 69.6107 144.334 66.3356 144.248 63.4083C146.865 64.3648 149.427 65.4081 151.903 66.5288L147.865 85.2904C146.17 93.1641 149.966 101.31 156.333 103.436ZM50.5648 98.325C46.4712 99.6776 42.1747 96.5957 41.0888 91.5622L25.0818 17.2889C23.9881 12.2168 26.4333 6.97087 30.5347 5.59897C34.6205 4.23677 38.9249 7.33794 40.0108 12.3617L56.0177 86.6351C57.1114 91.7168 54.6662 96.9628 50.5648 98.325ZM80.7511 38.06C77.1653 38.5334 73.3376 39.3739 70.1971 41.6056C70.2206 40.1275 70.244 38.6397 70.2206 37.2003C70.1424 31.0076 70.3299 24.6603 73.4392 21.1726C75.5875 18.7573 78.1655 18.9795 80.3372 21.7716C83.251 25.52 83.587 31.9833 83.876 37.6833V37.7316C82.8136 37.7993 81.7667 37.9248 80.7511 38.06ZM102.476 49.8175C101.413 45.1802 98.2808 41.3447 94.9763 39.5575C92.9531 38.4658 90.8438 37.9442 88.7423 37.7316C88.7813 34.8525 88.8751 31.9737 88.836 29.1043C88.7579 22.9116 88.9454 16.5643 92.0547 13.0766C94.2029 10.6613 96.781 10.8835 98.9527 13.6756C101.867 17.424 102.202 23.8872 102.491 29.5873C102.843 36.234 103.632 43.2093 102.476 49.8175ZM120.967 50.4551C120.147 54.5901 117.6 58.0197 114.905 58.6283C106.679 60.4639 107.28 40.5911 107.39 35.0941C107.429 33.0943 107.452 31.0944 107.445 29.0946C107.39 24.5926 107.265 19.7137 109.062 15.6175C110.913 11.4054 114.686 9.96572 117.553 13.6563C121.397 18.6028 120.928 26.9981 121.303 33.3649C121.647 39.1906 122.006 45.1995 120.967 50.4551ZM139.614 58.2418C138.888 61.0627 136.607 63.507 134.052 64.1639C126.17 66.2217 125.834 52.9473 125.998 46.7064C126.131 41.4508 125.022 33.7992 129.06 30.2924C131.787 27.9254 135.443 28.9592 137.443 32.0893C139.294 34.9781 139.474 38.9679 139.708 42.4845C140.06 47.6145 140.896 53.2179 139.614 58.2418ZM151.997 86.6443L168.003 12.3709C169.089 7.33742 173.386 4.25579 177.48 5.60815C181.581 6.98002 184.026 12.2163 182.932 17.2981L166.926 91.5714C165.84 96.595 161.535 99.6964 157.449 98.3342C153.348 96.9623 150.903 91.7163 151.997 86.6443Z" stroke="#0822EC" stroke-width="2" mask="url(#path-1-inside-1_1_3)"/>
</g>
<defs>
<filter id="filter0_d_1_3" x="0" y="0" width="208" height="168" filterUnits="userSpaceOnUse" color-interpolation-filters="sRGB">
<feFlood flood-opacity="0" result="BackgroundImageFix"/>
<feColorMatrix in="SourceAlpha" type="matrix" values="0 0 0 0 0 0 0 0 0 0 0 0 0 0 0 0 0 0 127 0" result="hardAlpha"/>
<feOffset dy="4"/>
<feGaussianBlur stdDeviation="2"/>
<feComposite in2="hardAlpha" operator="out"/>
<feColorMatrix type="matrix" values="0 0 0 0 0.0104105 0 0 0 0 0.0266764 0 0 0 0 0.986366 0 0 0 1 0"/>
<feBlend mode="normal" in2="BackgroundImageFix" result="effect1_dropShadow_1_3"/>
<feBlend mode="normal" in="SourceGraphic" in2="effect1_dropShadow_1_3" result="shape"/>
</filter>
</defs>
</svg>
